<svg version="1.2" xmlns="http://www.w3.org/2000/svg" viewBox="0 0 224 252" width="224" height="252"><style>.a{fill:#92dd05}</style><path fill-rule="evenodd" class="a" d="m109.5 0c8.3 0 15.9 10.9 11.4 15.3-1.9 1.9-0.6 11.5 2 13.4 1.2 1.3 8.9 2.6 18.5 3.8 15.3 2 16.5 2 20.4 0 6.4-4.4 8.9-1.9 8.9 9.6 0 10.2-2.5 13.4-7.6 10.2-2.6-1.3-6.4-1.3-17.9-0.6-17.9 1.9-21.1 3.2-22.3 8.3-1.3 4.4 0 75.3 1.9 100.1 1.2 18.5 3.2 28.8 6.4 33.2 2.5 2.6 15.9 7 22.3 7 12.1-0.6 26.8-9.5 44.6-28.7 2.6-2.5 3.9-3.8 5.8-5.7-7-2.6-17.9-3.8-17.9-3.8l37.7-15.4c0 0-2.6 46-3.9 48.5-1.2 1.3-3.2-11.4-7-20.4-0.6 1.3-0.6 1.9-1.3 3.2-17.8 35.7-33.8 49.8-58 52.3-12.8 1.3-28.1 5.1-32.6 7-1.2 1.3-4.4 4.5-6.3 8.3-1.9 3.2-4.5 6.4-5.1 6.4-1.3 0-3.9-3.2-5.8-6.4-1.9-3.8-4.4-7-6.4-8.3-3.8-1.9-19.1-5.7-31.9-7-22.9-2.5-38.2-15.3-55.5-46.5-3.2 8.2-5.1 19.1-5.7 17.8-1.3-2.5-3.8-47.8-3.8-47.8l37.6 15.3c0 0-10.2 0.6-17.2 3.2 17.8 18.5 32.5 27.4 44 28 7 0 20.4-4.4 22.3-7 3.2-4.4 5.8-14.7 7-33.2 1.3-24.8 2.6-95.7 2-100.1-1.3-5.1-4.5-6.4-22.4-8.3-11.5-0.7-15.3-0.7-17.8 0.6-5.8 3.2-7.7 0-7.7-10.2 0-11.5 1.9-14 8.9-9.6 3.2 2 4.5 2 20.5 0 8.9-1.2 17.2-2.5 18.5-3.8 1.9-1.9 3.8-11.5 1.9-13.4-5.1-4.4 3.2-15.3 11.5-15.3zm-0.7 7.7c-3.2 0-4.4 1.9-3.8 5.1 1.3 3.2 8.3 1.9 8.3-1.9 0-2-0.6-2.6-3.2-3.2-0.6 0-0.6 0-1.3 0z"/></svg>